<svg xmlns="http://www.w3.org/2000/svg" xmlns:xlink="http://www.w3.org/1999/xlink" width="100" zoomAndPan="magnify" viewBox="0 0 75 37.5" height="50" preserveAspectRatio="xMidYMid meet" version="1.0"><defs><g/><clipPath id="6c663e9ce1"><path d="M 0.492188 4 L 14 4 L 14 30 L 0.492188 30 Z M 0.492188 4 " clip-rule="nonzero"/></clipPath><clipPath id="82b69efc1a"><path d="M 61 4 L 74.503906 4 L 74.503906 30 L 61 30 Z M 61 4 " clip-rule="nonzero"/></clipPath></defs><g clip-path="url(#6c663e9ce1)"><path fill="#fa7999" d="M 11.84375 28.769531 C 12.085938 29.011719 12.449219 29.132812 12.691406 29.132812 C 12.933594 29.132812 13.292969 29.011719 13.535156 28.769531 C 14.019531 28.285156 14.019531 27.5625 13.535156 27.078125 L 3.511719 17.054688 L 13.535156 7.03125 C 14.019531 6.546875 14.019531 5.824219 13.535156 5.339844 C 13.054688 4.855469 12.328125 4.855469 11.84375 5.339844 L 0.976562 16.210938 C 0.492188 16.691406 0.492188 17.417969 0.976562 17.898438 Z M 11.84375 28.769531 " fill-opacity="1" fill-rule="nonzero"/></g><path fill="#fa7999" d="M 18.246094 33.839844 C 18.367188 33.839844 18.488281 33.960938 18.730469 33.960938 C 19.210938 33.960938 19.695312 33.71875 19.816406 33.238281 L 31.894531 1.839844 C 32.132812 1.234375 31.773438 0.507812 31.167969 0.269531 C 30.5625 0.0273438 29.839844 0.390625 29.597656 0.992188 L 17.519531 32.390625 C 17.402344 32.996094 17.640625 33.597656 18.246094 33.839844 Z M 18.246094 33.839844 " fill-opacity="1" fill-rule="nonzero"/><g fill="#ffffff" fill-opacity="1"><g transform="translate(31.028966, 24.765086)"><g><path d="M 3.8125 -15.75 L 3.8125 0 L 1.90625 0 L 1.90625 -15.75 Z M 3.8125 -15.75 "/></g></g></g><g fill="#ffffff" fill-opacity="1"><g transform="translate(36.749898, 24.765086)"><g><path d="M 12.671875 -10.828125 C 12.335938 -11.859375 11.789062 -12.675781 11.03125 -13.28125 C 10.269531 -13.882812 9.320312 -14.1875 8.1875 -14.1875 C 7.25 -14.1875 6.394531 -13.941406 5.625 -13.453125 C 4.863281 -12.972656 4.257812 -12.265625 3.8125 -11.328125 C 3.363281 -10.390625 3.140625 -9.238281 3.140625 -7.875 C 3.140625 -6.507812 3.363281 -5.359375 3.8125 -4.421875 C 4.269531 -3.484375 4.890625 -2.769531 5.671875 -2.28125 C 6.453125 -1.800781 7.332031 -1.5625 8.3125 -1.5625 C 9.195312 -1.5625 9.976562 -1.75 10.65625 -2.125 C 11.34375 -2.507812 11.878906 -3.046875 12.265625 -3.734375 C 12.660156 -4.421875 12.867188 -5.238281 12.890625 -6.1875 L 8.734375 -6.1875 L 8.734375 -7.875 L 14.734375 -7.875 L 14.734375 -6.1875 C 14.734375 -4.882812 14.457031 -3.753906 13.90625 -2.796875 C 13.351562 -1.835938 12.59375 -1.09375 11.625 -0.5625 C 10.664062 -0.0390625 9.5625 0.21875 8.3125 0.21875 C 6.914062 0.21875 5.6875 -0.109375 4.625 -0.765625 C 3.570312 -1.421875 2.753906 -2.351562 2.171875 -3.5625 C 1.585938 -4.78125 1.296875 -6.21875 1.296875 -7.875 C 1.296875 -9.53125 1.585938 -10.960938 2.171875 -12.171875 C 2.753906 -13.390625 3.566406 -14.328125 4.609375 -14.984375 C 5.648438 -15.640625 6.84375 -15.96875 8.1875 -15.96875 C 9.289062 -15.96875 10.289062 -15.75 11.1875 -15.3125 C 12.09375 -14.882812 12.84375 -14.28125 13.4375 -13.5 C 14.039062 -12.726562 14.441406 -11.835938 14.640625 -10.828125 Z M 12.671875 -10.828125 "/></g></g></g><g clip-path="url(#82b69efc1a)"><path fill="#fa7999" d="M 63.152344 5.21875 C 62.910156 4.976562 62.546875 4.855469 62.308594 4.855469 C 62.066406 4.855469 61.703125 4.976562 61.460938 5.21875 C 60.976562 5.703125 60.976562 6.425781 61.460938 6.910156 L 71.484375 16.933594 L 61.460938 26.957031 C 60.976562 27.441406 60.976562 28.164062 61.460938 28.648438 C 61.945312 29.132812 62.667969 29.132812 63.152344 28.648438 L 74.019531 17.777344 C 74.503906 17.296875 74.503906 16.570312 74.019531 16.089844 Z M 63.152344 5.21875 " fill-opacity="1" fill-rule="nonzero"/></g></svg>