<svg xmlns="http://www.w3.org/2000/svg" xmlns:xlink="http://www.w3.org/1999/xlink" width="500" zoomAndPan="magnify" viewBox="0 0 375 374.999991" height="500" preserveAspectRatio="xMidYMid meet" version="1.0"><defs><g/><clipPath id="a3fa8d8426"><path d="M 230.175781 27.5625 L 354.980469 27.5625 L 354.980469 152.367188 L 230.175781 152.367188 Z M 230.175781 27.5625 " clip-rule="nonzero"/></clipPath><clipPath id="0ef864ca2d"><path d="M 247.425781 27.5625 L 337.367188 27.5625 C 341.941406 27.5625 346.328125 29.382812 349.566406 32.617188 C 352.800781 35.851562 354.617188 40.238281 354.617188 44.8125 L 354.617188 134.847656 C 354.617188 139.421875 352.800781 143.8125 349.566406 147.046875 C 346.328125 150.28125 341.941406 152.097656 337.367188 152.097656 L 247.425781 152.097656 C 242.851562 152.097656 238.464844 150.28125 235.230469 147.046875 C 231.992188 143.8125 230.175781 139.421875 230.175781 134.847656 L 230.175781 44.8125 C 230.175781 40.238281 231.992188 35.851562 235.230469 32.617188 C 238.464844 29.382812 242.851562 27.5625 247.425781 27.5625 " clip-rule="nonzero"/></clipPath><clipPath id="6411ab3705"><path d="M 16.707031 227.035156 L 143.855469 227.035156 L 143.855469 354 L 16.707031 354 Z M 16.707031 227.035156 " clip-rule="nonzero"/></clipPath><clipPath id="4e26ee41f9"><path d="M 33.957031 227.035156 L 126.183594 227.035156 C 130.757812 227.035156 135.144531 228.851562 138.382812 232.085938 C 141.617188 235.320312 143.433594 239.710938 143.433594 244.285156 L 143.433594 336.605469 C 143.433594 341.183594 141.617188 345.570312 138.382812 348.804688 C 135.144531 352.039062 130.757812 353.855469 126.183594 353.855469 L 33.957031 353.855469 C 29.378906 353.855469 24.992188 352.039062 21.757812 348.804688 C 18.523438 345.570312 16.707031 341.183594 16.707031 336.605469 L 16.707031 244.285156 C 16.707031 239.710938 18.523438 235.320312 21.757812 232.085938 C 24.992188 228.851562 29.378906 227.035156 33.957031 227.035156 " clip-rule="nonzero"/></clipPath></defs><g clip-path="url(#a3fa8d8426)"><g clip-path="url(#0ef864ca2d)"><path fill="#000000" d="M 230.175781 27.5625 L 354.394531 27.5625 L 354.394531 152.367188 L 230.175781 152.367188 Z M 230.175781 27.5625 " fill-opacity="1" fill-rule="nonzero"/></g></g><g fill="#000000" fill-opacity="1"><g transform="translate(100.131764, 202.780827)"><g><path d="M 11.375 0.375 C 9.738281 0.375 8.269531 0.148438 6.96875 -0.296875 C 5.664062 -0.742188 4.582031 -1.328125 3.71875 -2.046875 C 2.851562 -2.765625 2.207031 -3.5625 1.78125 -4.4375 L 3.453125 -6.46875 L 3.890625 -6.46875 C 5.503906 -3.75 8 -2.390625 11.375 -2.390625 C 13.332031 -2.390625 14.785156 -2.796875 15.734375 -3.609375 C 16.691406 -4.429688 17.171875 -5.570312 17.171875 -7.03125 C 17.171875 -7.882812 17.015625 -8.609375 16.703125 -9.203125 C 16.390625 -9.796875 15.867188 -10.300781 15.140625 -10.71875 C 14.421875 -11.144531 13.4375 -11.507812 12.1875 -11.8125 L 9.15625 -12.5625 C 6.882812 -13.113281 5.210938 -13.984375 4.140625 -15.171875 C 3.066406 -16.367188 2.53125 -17.878906 2.53125 -19.703125 C 2.53125 -20.992188 2.859375 -22.144531 3.515625 -23.15625 C 4.179688 -24.175781 5.15625 -24.96875 6.4375 -25.53125 C 7.71875 -26.101562 9.25 -26.390625 11.03125 -26.390625 C 12.988281 -26.390625 14.640625 -26.113281 15.984375 -25.5625 C 17.335938 -25.007812 18.414062 -24.179688 19.21875 -23.078125 L 17.734375 -21.078125 L 17.28125 -21.078125 C 16.53125 -21.984375 15.644531 -22.648438 14.625 -23.078125 C 13.601562 -23.515625 12.40625 -23.734375 11.03125 -23.734375 C 9.226562 -23.734375 7.867188 -23.378906 6.953125 -22.671875 C 6.035156 -21.972656 5.578125 -21.007812 5.578125 -19.78125 C 5.578125 -18.601562 5.910156 -17.664062 6.578125 -16.96875 C 7.253906 -16.28125 8.394531 -15.742188 10 -15.359375 L 13.125 -14.609375 C 15.644531 -14.015625 17.472656 -13.101562 18.609375 -11.875 C 19.742188 -10.644531 20.3125 -9.078125 20.3125 -7.171875 C 20.3125 -5.703125 19.976562 -4.398438 19.3125 -3.265625 C 18.65625 -2.128906 17.65625 -1.238281 16.3125 -0.59375 C 14.976562 0.0507812 13.332031 0.375 11.375 0.375 Z M 11.375 0.375 "/></g></g><g transform="translate(122.432946, 202.780827)"><g><path d="M 11.265625 0.375 C 9.410156 0.375 7.796875 -0.015625 6.421875 -0.796875 C 5.054688 -1.578125 4.003906 -2.726562 3.265625 -4.25 C 2.523438 -5.78125 2.15625 -7.632812 2.15625 -9.8125 C 2.15625 -11.976562 2.523438 -13.828125 3.265625 -15.359375 C 4.003906 -16.890625 5.054688 -18.046875 6.421875 -18.828125 C 7.796875 -19.609375 9.410156 -20 11.265625 -20 C 13.117188 -20 14.726562 -19.609375 16.09375 -18.828125 C 17.46875 -18.046875 18.523438 -16.890625 19.265625 -15.359375 C 20.003906 -13.828125 20.375 -11.976562 20.375 -9.8125 C 20.375 -7.632812 20.003906 -5.78125 19.265625 -4.25 C 18.523438 -2.726562 17.46875 -1.578125 16.09375 -0.796875 C 14.726562 -0.015625 13.117188 0.375 11.265625 0.375 Z M 11.265625 -2.21875 C 13.222656 -2.21875 14.71875 -2.832031 15.75 -4.0625 C 16.789062 -5.300781 17.3125 -7.21875 17.3125 -9.8125 C 17.3125 -12.40625 16.789062 -14.316406 15.75 -15.546875 C 14.71875 -16.785156 13.222656 -17.40625 11.265625 -17.40625 C 9.304688 -17.40625 7.804688 -16.785156 6.765625 -15.546875 C 5.722656 -14.304688 5.203125 -12.394531 5.203125 -9.8125 C 5.203125 -7.21875 5.722656 -5.300781 6.765625 -4.0625 C 7.804688 -2.832031 9.304688 -2.21875 11.265625 -2.21875 Z M 11.265625 -2.21875 "/></g></g><g transform="translate(144.965505, 202.780827)"><g><path d="M 7.8125 0.375 C 6.425781 0.375 5.332031 -0.0195312 4.53125 -0.8125 C 3.738281 -1.601562 3.34375 -2.78125 3.34375 -4.34375 L 3.34375 -27.515625 L 6.25 -27.515625 L 6.25 -4.53125 C 6.25 -3.71875 6.40625 -3.128906 6.71875 -2.765625 C 7.03125 -2.398438 7.519531 -2.21875 8.1875 -2.21875 C 8.59375 -2.21875 9.003906 -2.285156 9.421875 -2.421875 L 9.671875 -2.34375 L 10 -0.078125 C 9.789062 0.0664062 9.484375 0.175781 9.078125 0.25 C 8.679688 0.332031 8.257812 0.375 7.8125 0.375 Z M 7.8125 0.375 "/></g></g><g transform="translate(155.644443, 202.780827)"><g><path d="M 9.703125 0.375 C 7.484375 0.375 5.828125 -0.210938 4.734375 -1.390625 C 3.648438 -2.566406 3.109375 -4.285156 3.109375 -6.546875 L 3.109375 -19.625 L 6.015625 -19.625 L 6.015625 -6.625 C 6.015625 -3.644531 7.414062 -2.15625 10.21875 -2.15625 C 12 -2.15625 13.40625 -2.734375 14.4375 -3.890625 C 15.46875 -5.054688 15.984375 -6.945312 15.984375 -9.5625 L 15.984375 -19.625 L 18.890625 -19.625 L 18.890625 0 L 16.140625 0 L 16.140625 -3.078125 L 15.765625 -3.171875 C 15.085938 -1.972656 14.273438 -1.082031 13.328125 -0.5 C 12.390625 0.0820312 11.179688 0.375 9.703125 0.375 Z M 9.703125 0.375 "/></g></g><g transform="translate(177.945625, 202.780827)"><g><path d="M 13.28125 -3.109375 L 14.203125 -1.03125 C 13.742188 -0.570312 13.132812 -0.222656 12.375 0.015625 C 11.625 0.253906 10.8125 0.375 9.9375 0.375 C 6.1875 0.375 4.3125 -1.523438 4.3125 -5.328125 L 4.3125 -17.265625 L 0.890625 -17.265625 L 0.890625 -19.65625 L 4.3125 -19.65625 L 4.3125 -23.796875 L 7.203125 -24.28125 L 7.203125 -19.65625 L 13.53125 -19.65625 L 13.53125 -17.265625 L 7.203125 -17.265625 L 7.203125 -5.609375 C 7.203125 -3.347656 8.179688 -2.21875 10.140625 -2.21875 C 11.210938 -2.21875 12.132812 -2.515625 12.90625 -3.109375 Z M 13.28125 -3.109375 "/></g></g><g transform="translate(192.896138, 202.780827)"><g><path d="M 4.875 -23.421875 C 4.257812 -23.421875 3.757812 -23.613281 3.375 -24 C 2.988281 -24.382812 2.796875 -24.875 2.796875 -25.46875 C 2.796875 -26.0625 2.988281 -26.550781 3.375 -26.9375 C 3.757812 -27.320312 4.257812 -27.515625 4.875 -27.515625 C 5.488281 -27.515625 5.988281 -27.320312 6.375 -26.9375 C 6.757812 -26.550781 6.953125 -26.0625 6.953125 -25.46875 C 6.953125 -24.875 6.757812 -24.382812 6.375 -24 C 5.988281 -23.613281 5.488281 -23.421875 4.875 -23.421875 Z M 3.421875 0 L 3.421875 -19.625 L 6.3125 -19.625 L 6.3125 0 Z M 3.421875 0 "/></g></g><g transform="translate(202.63177, 202.780827)"><g><path d="M 11.265625 0.375 C 9.410156 0.375 7.796875 -0.015625 6.421875 -0.796875 C 5.054688 -1.578125 4.003906 -2.726562 3.265625 -4.25 C 2.523438 -5.78125 2.15625 -7.632812 2.15625 -9.8125 C 2.15625 -11.976562 2.523438 -13.828125 3.265625 -15.359375 C 4.003906 -16.890625 5.054688 -18.046875 6.421875 -18.828125 C 7.796875 -19.609375 9.410156 -20 11.265625 -20 C 13.117188 -20 14.726562 -19.609375 16.09375 -18.828125 C 17.46875 -18.046875 18.523438 -16.890625 19.265625 -15.359375 C 20.003906 -13.828125 20.375 -11.976562 20.375 -9.8125 C 20.375 -7.632812 20.003906 -5.78125 19.265625 -4.25 C 18.523438 -2.726562 17.46875 -1.578125 16.09375 -0.796875 C 14.726562 -0.015625 13.117188 0.375 11.265625 0.375 Z M 11.265625 -2.21875 C 13.222656 -2.21875 14.71875 -2.832031 15.75 -4.0625 C 16.789062 -5.300781 17.3125 -7.21875 17.3125 -9.8125 C 17.3125 -12.40625 16.789062 -14.316406 15.75 -15.546875 C 14.71875 -16.785156 13.222656 -17.40625 11.265625 -17.40625 C 9.304688 -17.40625 7.804688 -16.785156 6.765625 -15.546875 C 5.722656 -14.304688 5.203125 -12.394531 5.203125 -9.8125 C 5.203125 -7.21875 5.722656 -5.300781 6.765625 -4.0625 C 7.804688 -2.832031 9.304688 -2.21875 11.265625 -2.21875 Z M 11.265625 -2.21875 "/></g></g><g transform="translate(225.164329, 202.780827)"><g><path d="M 3.421875 0 L 3.421875 -19.625 L 6.171875 -19.625 L 6.171875 -16.546875 L 6.546875 -16.46875 C 7.203125 -17.613281 8.035156 -18.488281 9.046875 -19.09375 C 10.066406 -19.695312 11.304688 -20 12.765625 -20 C 15.117188 -20 16.828125 -19.394531 17.890625 -18.1875 C 18.953125 -16.988281 19.484375 -15.140625 19.484375 -12.640625 L 19.484375 0 L 16.59375 0 L 16.59375 -12.5625 C 16.59375 -13.75 16.441406 -14.703125 16.140625 -15.421875 C 15.835938 -16.140625 15.367188 -16.660156 14.734375 -16.984375 C 14.097656 -17.316406 13.265625 -17.484375 12.234375 -17.484375 C 10.460938 -17.484375 9.03125 -16.894531 7.9375 -15.71875 C 6.851562 -14.550781 6.3125 -12.671875 6.3125 -10.078125 L 6.3125 0 Z M 3.421875 0 "/></g></g><g transform="translate(247.768081, 202.780827)"><g><path d="M 8.953125 0.375 C 7.722656 0.375 6.582031 0.210938 5.53125 -0.109375 C 4.476562 -0.441406 3.585938 -0.890625 2.859375 -1.453125 C 2.140625 -2.023438 1.628906 -2.664062 1.328125 -3.375 L 3.046875 -5.15625 L 3.421875 -5.15625 C 4.054688 -4.1875 4.820312 -3.453125 5.71875 -2.953125 C 6.625 -2.460938 7.703125 -2.21875 8.953125 -2.21875 C 10.398438 -2.21875 11.5 -2.5 12.25 -3.0625 C 13.007812 -3.632812 13.390625 -4.421875 13.390625 -5.421875 C 13.390625 -6.191406 13.160156 -6.828125 12.703125 -7.328125 C 12.242188 -7.835938 11.503906 -8.21875 10.484375 -8.46875 L 7.171875 -9.296875 C 5.398438 -9.722656 4.109375 -10.394531 3.296875 -11.3125 C 2.484375 -12.238281 2.078125 -13.382812 2.078125 -14.75 C 2.078125 -15.820312 2.347656 -16.75 2.890625 -17.53125 C 3.441406 -18.320312 4.226562 -18.929688 5.25 -19.359375 C 6.28125 -19.785156 7.503906 -20 8.921875 -20 C 10.722656 -20 12.140625 -19.75 13.171875 -19.25 C 14.210938 -18.75 15.023438 -18.046875 15.609375 -17.140625 L 13.96875 -15.53125 L 13.609375 -15.53125 C 12.984375 -16.257812 12.300781 -16.78125 11.5625 -17.09375 C 10.820312 -17.414062 9.941406 -17.578125 8.921875 -17.578125 C 7.628906 -17.578125 6.632812 -17.347656 5.9375 -16.890625 C 5.25 -16.429688 4.90625 -15.757812 4.90625 -14.875 C 4.90625 -14.082031 5.148438 -13.441406 5.640625 -12.953125 C 6.128906 -12.472656 6.976562 -12.082031 8.1875 -11.78125 L 11.4375 -11 C 13.15625 -10.59375 14.390625 -9.921875 15.140625 -8.984375 C 15.898438 -8.046875 16.28125 -6.875 16.28125 -5.46875 C 16.28125 -4.3125 16.007812 -3.296875 15.46875 -2.421875 C 14.925781 -1.546875 14.101562 -0.859375 13 -0.359375 C 11.894531 0.128906 10.546875 0.375 8.953125 0.375 Z M 8.953125 0.375 "/></g></g></g><g fill="#000000" fill-opacity="1"><g transform="translate(265.916343, 202.780827)"><g/></g></g><g fill="#000000" fill-opacity="1"><g transform="translate(6.035206, 156.654559)"><g><path d="M 67.796875 -138.4375 C 90.265625 -138.4375 107.414062 -132.628906 119.25 -121.015625 C 131.09375 -109.398438 137.015625 -92.132812 137.015625 -69.21875 C 137.015625 -46.363281 131.09375 -29.113281 119.25 -17.46875 C 107.414062 -5.820312 90.265625 0 67.796875 0 L 17.984375 0 L 17.984375 -138.4375 Z M 66.1875 -23.015625 C 80.457031 -23.015625 91.125 -26.65625 98.1875 -33.9375 C 105.257812 -41.226562 108.796875 -52.988281 108.796875 -69.21875 C 108.796875 -85.4375 105.257812 -97.191406 98.1875 -104.484375 C 91.125 -111.773438 80.457031 -115.421875 66.1875 -115.421875 L 45.359375 -115.421875 L 45.359375 -23.015625 Z M 66.1875 -23.015625 "/></g></g></g><g fill="#000000" fill-opacity="1"><g transform="translate(238.858545, 354.92547)"><g><path d="M 70.265625 1.84375 C 58.421875 1.84375 47.984375 -0.613281 38.953125 -5.53125 C 29.929688 -10.457031 22.867188 -17.859375 17.765625 -27.734375 C 12.660156 -37.617188 10.109375 -49.800781 10.109375 -64.28125 C 10.109375 -78.769531 12.660156 -90.953125 17.765625 -100.828125 C 22.867188 -110.703125 29.929688 -118.101562 38.953125 -123.03125 C 47.984375 -127.957031 58.421875 -130.421875 70.265625 -130.421875 C 82.640625 -130.421875 93.148438 -128 101.796875 -123.15625 C 110.441406 -118.320312 116.613281 -110.953125 120.3125 -101.046875 L 101.75 -89.703125 L 99.546875 -89.796875 C 96.796875 -96.472656 93.0625 -101.257812 88.34375 -104.15625 C 83.625 -107.0625 77.597656 -108.515625 70.265625 -108.515625 C 59.597656 -108.515625 51.273438 -104.984375 45.296875 -97.921875 C 39.316406 -90.859375 36.328125 -79.644531 36.328125 -64.28125 C 36.328125 -48.976562 39.316406 -37.796875 45.296875 -30.734375 C 51.273438 -23.671875 59.597656 -20.140625 70.265625 -20.140625 C 86.972656 -20.140625 97.203125 -28.257812 100.953125 -44.5 L 103.15625 -44.5 L 121.890625 -34.734375 C 118.367188 -22.546875 112.359375 -13.398438 103.859375 -7.296875 C 95.359375 -1.203125 84.160156 1.84375 70.265625 1.84375 Z M 70.265625 1.84375 "/></g></g></g><g clip-path="url(#6411ab3705)"><g clip-path="url(#4e26ee41f9)"><path fill="#000000" d="M 16.707031 227.035156 L 143.269531 227.035156 L 143.269531 353.597656 L 16.707031 353.597656 Z M 16.707031 227.035156 " fill-opacity="1" fill-rule="nonzero"/></g></g></svg>